<svg width="5" height="10" viewBox="0 0 5 10" fill="none" xmlns="http://www.w3.org/2000/svg">
<path id="Vector" d="M1.68678 6.38549C1.68678 6.54276 1.64015 6.6965 1.55277 6.82727C1.46539 6.95804 1.3412 7.05996 1.1959 7.12014C1.0506 7.18033 0.890719 7.19608 0.736469 7.16539C0.582219 7.13471 0.440532 7.05898 0.329324 6.94777C0.218116 6.83656 0.142382 6.69487 0.1117 6.54062C0.0810176 6.38637 0.0967648 6.22649 0.15695 6.08119C0.217135 5.93589 0.319056 5.8117 0.449823 5.72432C0.580589 5.63695 0.73433 5.59031 0.891601 5.59031C1.1025 5.59031 1.30475 5.67409 1.45388 5.82322C1.603 5.97234 1.68678 6.1746 1.68678 6.38549ZM0.891601 2.80718C0.73433 2.80718 0.580589 2.85382 0.449823 2.94119C0.319056 3.02857 0.217135 3.15276 0.15695 3.29806C0.0967648 3.44336 0.0810176 3.60324 0.1117 3.75749C0.142382 3.91174 0.218116 4.05343 0.329324 4.16464C0.440532 4.27585 0.582219 4.35158 0.736469 4.38226C0.890719 4.41294 1.0506 4.3972 1.1959 4.33701C1.3412 4.27683 1.46539 4.17491 1.55277 4.04414C1.64015 3.91337 1.68678 3.75963 1.68678 3.60236C1.68678 3.39147 1.603 3.18921 1.45388 3.04008C1.30475 2.89096 1.1025 2.80718 0.891601 2.80718ZM0.891601 0.0240479C0.73433 0.0240479 0.580589 0.0706843 0.449823 0.15806C0.319056 0.245435 0.217135 0.369626 0.15695 0.514926C0.0967648 0.660226 0.0810176 0.820111 0.1117 0.974361C0.142382 1.12861 0.218116 1.2703 0.329324 1.38151C0.440532 1.49271 0.582219 1.56845 0.736469 1.59913C0.890719 1.62981 1.0506 1.61406 1.1959 1.55388C1.3412 1.49369 1.46539 1.39177 1.55277 1.26101C1.64015 1.13024 1.68678 0.9765 1.68678 0.819228C1.68678 0.608333 1.603 0.406076 1.45388 0.256951C1.30475 0.107826 1.1025 0.0240479 0.891601 0.0240479ZM4.07232 7.97585C3.91505 7.97585 3.76131 8.02249 3.63054 8.10987C3.49978 8.19724 3.39786 8.32143 3.33767 8.46673C3.27749 8.61203 3.26174 8.77192 3.29242 8.92617C3.3231 9.08042 3.39884 9.2221 3.51005 9.33331C3.62125 9.44452 3.76294 9.52025 3.91719 9.55094C4.07144 9.58162 4.23133 9.56587 4.37663 9.50569C4.52193 9.4455 4.64612 9.34358 4.73349 9.21282C4.82087 9.08205 4.8675 8.92831 4.8675 8.77103C4.8675 8.56014 4.78373 8.35788 4.6346 8.20876C4.48548 8.05963 4.28322 7.97585 4.07232 7.97585ZM4.07232 5.19272C3.91505 5.19272 3.76131 5.23936 3.63054 5.32673C3.49978 5.41411 3.39786 5.5383 3.33767 5.6836C3.27749 5.8289 3.26174 5.98878 3.29242 6.14303C3.3231 6.29728 3.39884 6.43897 3.51005 6.55018C3.62125 6.66139 3.76294 6.73712 3.91719 6.7678C4.07144 6.79849 4.23133 6.78274 4.37663 6.72255C4.52193 6.66237 4.64612 6.56045 4.73349 6.42968C4.82087 6.29891 4.8675 6.14517 4.8675 5.9879C4.8675 5.77701 4.78373 5.57475 4.6346 5.42563C4.48548 5.2765 4.28322 5.19272 4.07232 5.19272ZM4.07232 2.40959C3.91505 2.40959 3.76131 2.45623 3.63054 2.5436C3.49978 2.63098 3.39786 2.75517 3.33767 2.90047C3.27749 3.04577 3.26174 3.20565 3.29242 3.3599C3.3231 3.51415 3.39884 3.65584 3.51005 3.76705C3.62125 3.87826 3.76294 3.95399 3.91719 3.98467C4.07144 4.01535 4.23133 3.99961 4.37663 3.93942C4.52193 3.87924 4.64612 3.77732 4.73349 3.64655C4.82087 3.51578 4.8675 3.36204 4.8675 3.20477C4.8675 2.99388 4.78373 2.79162 4.6346 2.64249C4.48548 2.49337 4.28322 2.40959 4.07232 2.40959Z" fill="#ABABAF" fill-opacity="0.38"/>
</svg>
